# xmcd
#
# Track frame offsets: 
#        150
#        21653
#        44477
#        63576
#        81758
#        104290
#        121668
#        134357
#        155504
#        175087
#        192696
#        212864
#        232313
#        262112
#        289704
#        303649
#        321242
#        339461
#
# Disc length: 4580 seconds
#
# Revision: 0
# Processed by: cddbd v1.5.2PL0 Copyright (c) Steve Scherf et al.
# Submitted via: ExactAudioCopy v0.99pb3
#
DISCID=1c11e212
DTITLE=Tom Waits - Blue Crack Of Dawn 76-06
DYEAR=2007
DGENRE=Blues
TTITLE0=Playin` Hooky
TTITLE1=2:19
TTITLE2=Buzz Fledderjohn
TTITLE3=No One Can Forgive Me But My Baby
TTITLE4=I´m Not Your Fool Anymore
TTITLE5=Downtown Train
TTITLE6=What Else Is New
TTITLE7=The One That Got Away
TTITLE8=Earth Died Screaming
TTITLE9=Way Down In The Mule (Bonus Track)
TTITLE10=Dead And Loverly (Bonus Track)
TTITLE11=Who`s Been Talking/'Till The Money Runs Out (Bonus Track)
TTITLE12=Don`t Go Into That Barn (Bonus Track)
TTITLE13=Shake IT (Bonus Track)
TTITLE14=Lie To Me Baby (Bonus Track)
TTITLE15=Whistlin`Past The Graveyard (Bonus Track)
TTITLE16=Time (Bonus Track)
TTITLE17=Rat`s Theme (Bonus Track)
EXTD=
EXTT0=
EXTT1=
EXTT2=
EXTT3=
EXTT4=
EXTT5=
EXTT6=
EXTT7=
EXTT8=
EXTT9=
EXTT10=
EXTT11=
EXTT12=
EXTT13=
EXTT14=
EXTT15=
EXTT16=
EXTT17=
PLAYORDER=
